<?xml version="1.0" encoding="utf-8"?>
<!-- Generator: Adobe Illustrator 23.0.1, SVG Export Plug-In . SVG Version: 6.00 Build 0)  -->
<svg version="1.1" id="Layer_1" xmlns="http://www.w3.org/2000/svg" xmlns:xlink="http://www.w3.org/1999/xlink" x="0px" y="0px"
	 viewBox="0 0 1280 856" style="enable-background:new 0 0 1280 856;" xml:space="preserve">
<style type="text/css">
	.st0{fill:#324951;stroke:#000000;stroke-miterlimit:10;}
	.st1{fill:#C4C930;stroke:#000000;stroke-width:4.436;stroke-miterlimit:10;}
	.st2{fill:#3094C6;stroke:#000000;stroke-width:4.436;stroke-miterlimit:10;}
	.st3{fill:#19A049;stroke:#000000;stroke-width:4.436;stroke-miterlimit:10;}
	.st4{fill:#9B1C20;stroke:#000000;stroke-width:4.436;stroke-miterlimit:10;}
	.st5{fill:#FFFFFF;stroke:#000000;stroke-width:4.436;stroke-miterlimit:10;}
</style>
<rect x="0" class="st0" width="1280" height="856"/>
<g>
	<rect x="224.73" y="261.3" class="st1" width="200" height="200"/>
	<rect x="424.73" y="261.3" class="st2" width="200" height="200"/>
	<rect x="612.8" y="261.3" class="st3" width="200" height="200"/>
	<rect x="812.8" y="261.3" class="st4" width="200" height="200"/>
</g>
<g>
	<path class="st5" d="M311.04,376.95l-10.04,30.41h-12.91l32.85-96.69H336l33,96.69h-13.34l-10.33-30.41H311.04z M342.74,367.19
		l-9.47-27.83c-2.15-6.31-3.59-12.05-5.02-17.65h-0.29c-1.43,5.74-3.01,11.62-4.88,17.5l-9.47,27.98H342.74z"/>
	<path class="st5" d="M383.2,311.96c5.45-1.15,14.06-2.01,22.81-2.01c12.48,0,20.52,2.15,26.54,7.03c5.02,3.73,8.03,9.47,8.03,17.07
		c0,9.33-6.17,17.5-16.35,21.23v0.29c9.18,2.3,19.94,9.9,19.94,24.25c0,8.32-3.3,14.63-8.18,19.37c-6.74,6.17-17.65,9.04-33.43,9.04
		c-8.61,0-15.21-0.57-19.37-1.15V311.96z M395.68,351.56h11.33c13.2,0,20.95-6.89,20.95-16.21c0-11.33-8.61-15.78-21.23-15.78
		c-5.74,0-9.04,0.43-11.05,0.86V351.56z M395.68,397.89c2.44,0.43,6.03,0.57,10.47,0.57c12.91,0,24.82-4.73,24.82-18.79
		c0-13.2-11.33-18.65-24.96-18.65h-10.33V397.89z"/>
	<path class="st5" d="M543.6,358.01c0,33.28-20.23,50.93-44.9,50.93c-25.54,0-43.47-19.8-43.47-49.06c0-30.7,19.08-50.79,44.9-50.79
		C526.52,309.09,543.6,329.32,543.6,358.01z M468.56,359.59c0,20.66,11.19,39.17,30.84,39.17c19.8,0,30.99-18.22,30.99-40.17
		c0-19.22-10.04-39.31-30.84-39.31C478.89,319.28,468.56,338.36,468.56,359.59z"/>
	<path class="st5" d="M572.29,310.67v57.24c0,21.66,9.61,30.84,22.52,30.84c14.35,0,23.53-9.47,23.53-30.84v-57.24h12.62v56.38
		c0,29.7-15.64,41.89-36.58,41.89c-19.8,0-34.72-11.33-34.72-41.32v-56.96H572.29z"/>
	<path class="st5" d="M671,321.29h-29.41v-10.62h71.59v10.62h-29.55v86.08H671V321.29z"/>
	<path class="st5" d="M835.84,364.9c-0.72-13.49-1.58-29.7-1.43-41.75h-0.43c-3.3,11.33-7.32,23.38-12.19,36.73l-17.07,46.91h-9.47
		l-15.64-46.05c-4.59-13.63-8.46-26.11-11.19-37.59h-0.29c-0.29,12.05-1,28.26-1.87,42.75l-2.58,41.46h-11.91l6.74-96.69h15.92
		l16.5,46.77c4.02,11.91,7.32,22.52,9.76,32.57h0.43c2.44-9.76,5.88-20.37,10.19-32.57l17.21-46.77h15.92l6.03,96.69h-12.19
		L835.84,364.9z"/>
	<path class="st5" d="M919.76,362.03h-37.59v34.86h41.89v10.47H869.7v-96.69h52.22v10.47h-39.74v30.56h37.59V362.03z"/>
</g>
</svg>
