<?xml version="1.0" encoding="utf-8"?>
<!-- Generator: Adobe Illustrator 23.0.1, SVG Export Plug-In . SVG Version: 6.00 Build 0)  -->
<svg version="1.1" id="Layer_1" xmlns="http://www.w3.org/2000/svg" xmlns:xlink="http://www.w3.org/1999/xlink" x="0px" y="0px"
	 viewBox="0 0 1280 856" style="enable-background:new 0 0 1280 856;" xml:space="preserve">
<style type="text/css">
	.st0{fill:#31484E;stroke:#000000;stroke-miterlimit:10;}
	.st1{fill:#763F1A;}
	.st2{fill:#DC7D27;}
	.st3{fill:#007A6C;}
	.st4{fill:#009789;}
	.st5{fill:#FFFFFF;}
</style>
<rect x="0" y="1" class="st0" width="1280" height="854"/>
<g>
	<polygon class="st1" points="339.16,619.92 339.16,584.13 360.07,568.85 928.18,569.66 940.84,583.73 940.84,619.92 	"/>
	<rect x="365.86" y="236.08" class="st2" width="26.82" height="332.77"/>
	<rect x="365.86" y="236.08" class="st2" width="549.28" height="27.22"/>
	<rect x="889.2" y="236.08" class="st2" width="25.93" height="332.77"/>
	<rect x="392.68" y="263.31" class="st3" width="13.95" height="305.55"/>
	<rect x="392.68" y="263.31" class="st3" width="496.53" height="27.51"/>
	<rect x="874.94" y="263.31" class="st3" width="14.27" height="305.55"/>
	<g>
		<g>
			<rect x="406.83" y="290.07" class="st4" width="468.31" height="278.03"/>
			<g>
				<path class="st5" d="M527.8,411.04l69.58-35.84v10.35l-58.64,29.39v0.3l58.64,29.39v10.35l-69.58-35.84V411.04z"/>
				<path class="st5" d="M607.13,460.98l41.84-108.72h10.2l-41.99,108.72H607.13z"/>
				<path class="st5" d="M738.2,419.29l-69.58,35.69v-10.35l59.09-29.39v-0.3l-59.09-29.39V375.2l69.58,35.69V419.29z"/>
			</g>
		</g>
		<g>
			<path class="st5" d="M572.93,531.07c-1.61,0.8-4.83,1.61-8.96,1.61c-9.56,0-16.76-6.04-16.76-17.17
				c0-10.62,7.2-17.82,17.72-17.82c4.23,0,6.9,0.91,8.05,1.51l-1.06,3.57c-1.66-0.8-4.03-1.41-6.85-1.41
				c-7.95,0-13.24,5.08-13.24,13.99c0,8.31,4.78,13.64,13.04,13.64c2.67,0,5.39-0.55,7.15-1.41L572.93,531.07z"/>
			<path class="st5" d="M578.41,498.25h4.38v30.25h14.5v3.67h-18.88V498.25z"/>
			<path class="st5" d="M607.66,521.5l-3.52,10.67h-4.53l11.53-33.93h5.29L628,532.18h-4.68l-3.62-10.67H607.66z M618.79,518.08
				l-3.32-9.77c-0.75-2.22-1.26-4.23-1.76-6.19h-0.1c-0.5,2.01-1.06,4.08-1.71,6.14l-3.32,9.82H618.79z"/>
			<path class="st5" d="M632.38,526.84c1.96,1.21,4.83,2.21,7.85,2.21c4.48,0,7.1-2.37,7.1-5.79c0-3.17-1.81-4.98-6.39-6.75
				c-5.54-1.96-8.96-4.83-8.96-9.62c0-5.29,4.38-9.21,10.97-9.21c3.47,0,5.99,0.81,7.5,1.66l-1.21,3.57
				c-1.11-0.6-3.37-1.61-6.44-1.61c-4.63,0-6.39,2.77-6.39,5.08c0,3.17,2.06,4.73,6.74,6.54c5.74,2.21,8.66,4.98,8.66,9.97
				c0,5.24-3.88,9.77-11.88,9.77c-3.27,0-6.85-0.96-8.66-2.16L632.38,526.84z"/>
			<path class="st5" d="M657.2,526.84c1.96,1.21,4.83,2.21,7.85,2.21c4.48,0,7.1-2.37,7.1-5.79c0-3.17-1.81-4.98-6.39-6.75
				c-5.54-1.96-8.96-4.83-8.96-9.62c0-5.29,4.38-9.21,10.97-9.21c3.47,0,5.99,0.81,7.5,1.66l-1.21,3.57
				c-1.11-0.6-3.37-1.61-6.44-1.61c-4.63,0-6.39,2.77-6.39,5.08c0,3.17,2.06,4.73,6.75,6.54c5.74,2.21,8.66,4.98,8.66,9.97
				c0,5.24-3.88,9.77-11.88,9.77c-3.27,0-6.85-0.96-8.66-2.16L657.2,526.84z"/>
			<path class="st5" d="M700.19,516.27H687v12.23h14.7v3.67h-19.08v-33.93h18.32v3.67H687v10.72h13.19V516.27z"/>
			<path class="st5" d="M706.78,526.84c1.96,1.21,4.83,2.21,7.85,2.21c4.48,0,7.1-2.37,7.1-5.79c0-3.17-1.81-4.98-6.39-6.75
				c-5.54-1.96-8.96-4.83-8.96-9.62c0-5.29,4.38-9.21,10.97-9.21c3.47,0,5.99,0.81,7.5,1.66l-1.21,3.57
				c-1.11-0.6-3.37-1.61-6.44-1.61c-4.63,0-6.39,2.77-6.39,5.08c0,3.17,2.06,4.73,6.75,6.54c5.74,2.21,8.66,4.98,8.66,9.97
				c0,5.24-3.88,9.77-11.88,9.77c-3.27,0-6.85-0.96-8.66-2.16L706.78,526.84z"/>
		</g>
	</g>
</g>
</svg>
