<?xml version="1.0" encoding="utf-8"?>
<!-- Generator: Adobe Illustrator 23.0.1, SVG Export Plug-In . SVG Version: 6.00 Build 0)  -->
<svg version="1.1" id="Layer_1" xmlns="http://www.w3.org/2000/svg" xmlns:xlink="http://www.w3.org/1999/xlink" x="0px" y="0px"
	 viewBox="0 0 1280 856" style="enable-background:new 0 0 1280 856;" xml:space="preserve">
<style type="text/css">
	.st0{fill:#324951;stroke:#000000;stroke-miterlimit:10;}
	.st1{stroke:#FFFFFF;stroke-width:3;stroke-miterlimit:10;}
</style>
<rect y="0" class="st0" width="1280" height="856"/>
<g>
	<path class="st1" d="M423.26,464.67c-4.63,2.32-13.9,4.63-25.76,4.63c-27.5,0-48.2-17.37-48.2-49.36
		c0-30.54,20.7-51.24,50.95-51.24c12.16,0,19.83,2.61,23.16,4.34l-3.04,10.28c-4.78-2.32-11.58-4.05-19.69-4.05
		c-22.87,0-38.07,14.62-38.07,40.24c0,23.88,13.75,39.23,37.49,39.23c7.67,0,15.49-1.59,20.55-4.05L423.26,464.67z"/>
	<path class="st1" d="M519.37,418.06c0,33.58-20.41,51.38-45.31,51.38c-25.76,0-43.86-19.97-43.86-49.5
		c0-30.98,19.25-51.24,45.31-51.24C502.15,368.7,519.37,389.11,519.37,418.06z M443.67,419.65c0,20.84,11.29,39.52,31.12,39.52
		c19.97,0,31.26-18.38,31.26-40.53c0-19.4-10.13-39.66-31.12-39.66C454.09,378.98,443.67,398.23,443.67,419.65z"/>
	<path class="st1" d="M535.73,467.85V370.3h13.75l31.27,49.36c7.24,11.43,12.88,21.71,17.51,31.7l0.29-0.14
		c-1.16-13.03-1.45-24.9-1.45-40.09V370.3h11.87v97.56h-12.74l-30.98-49.5c-6.8-10.86-13.32-22-18.24-32.57l-0.43,0.14
		c0.72,12.3,1.01,24.03,1.01,40.24v41.69H535.73z"/>
	<path class="st1" d="M649.5,381.01h-29.67V370.3h72.23v10.71h-29.82v86.85H649.5V381.01z"/>
	<path class="st1" d="M707.83,437.17l-10.13,30.69h-13.03l33.15-97.56h15.2l33.29,97.56h-13.46l-10.42-30.69H707.83z M739.82,427.33
		l-9.55-28.08c-2.17-6.37-3.62-12.16-5.07-17.8h-0.29c-1.45,5.79-3.04,11.72-4.92,17.66l-9.55,28.23H739.82z"/>
	<path class="st1" d="M846.64,464.67c-4.63,2.32-13.9,4.63-25.76,4.63c-27.5,0-48.2-17.37-48.2-49.36
		c0-30.54,20.7-51.24,50.95-51.24c12.16,0,19.83,2.61,23.16,4.34l-3.04,10.28c-4.78-2.32-11.58-4.05-19.68-4.05
		c-22.87,0-38.07,14.62-38.07,40.24c0,23.88,13.75,39.23,37.49,39.23c7.67,0,15.49-1.59,20.55-4.05L846.64,464.67z"/>
	<path class="st1" d="M885,381.01h-29.67V370.3h72.23v10.71h-29.82v86.85H885V381.01z"/>
</g>
<g>
	<path class="st1" d="M434.68,464.67c-4.63,2.32-13.9,4.63-25.76,4.63c-27.5,0-48.2-17.37-48.2-49.36
		c0-30.54,20.7-51.24,50.95-51.24c12.16,0,19.83,2.61,23.16,4.34l-3.04,10.28c-4.78-2.32-11.58-4.05-19.69-4.05
		c-22.87,0-38.07,14.62-38.07,40.24c0,23.88,13.75,39.23,37.49,39.23c7.67,0,15.49-1.59,20.55-4.05L434.68,464.67z"/>
	<path class="st1" d="M530.79,418.06c0,33.58-20.41,51.38-45.31,51.38c-25.76,0-43.86-19.97-43.86-49.5
		c0-30.98,19.25-51.24,45.31-51.24C513.57,368.7,530.79,389.11,530.79,418.06z M455.09,419.65c0,20.84,11.29,39.52,31.12,39.52
		c19.97,0,31.26-18.38,31.26-40.53c0-19.4-10.13-39.66-31.12-39.66C465.51,378.98,455.09,398.23,455.09,419.65z"/>
	<path class="st1" d="M547.15,467.85V370.3h13.75l31.27,49.36c7.24,11.43,12.88,21.71,17.51,31.7l0.29-0.14
		c-1.16-13.03-1.45-24.9-1.45-40.09V370.3h11.87v97.56h-12.74l-30.98-49.5c-6.8-10.86-13.32-22-18.24-32.57l-0.43,0.14
		c0.72,12.3,1.01,24.03,1.01,40.24v41.69H547.15z"/>
	<path class="st1" d="M660.92,381.01h-29.67V370.3h72.23v10.71h-29.82v86.85h-12.74V381.01z"/>
	<path class="st1" d="M719.25,437.17l-10.13,30.69h-13.03l33.15-97.56h15.2l33.29,97.56h-13.46l-10.42-30.69H719.25z M751.24,427.33
		l-9.55-28.08c-2.17-6.37-3.62-12.16-5.07-17.8h-0.29c-1.45,5.79-3.04,11.72-4.92,17.66l-9.55,28.23H751.24z"/>
	<path class="st1" d="M858.06,464.67c-4.63,2.32-13.9,4.63-25.76,4.63c-27.5,0-48.2-17.37-48.2-49.36
		c0-30.54,20.7-51.24,50.95-51.24c12.16,0,19.83,2.61,23.16,4.34l-3.04,10.28c-4.78-2.32-11.58-4.05-19.68-4.05
		c-22.87,0-38.07,14.62-38.07,40.24c0,23.88,13.75,39.23,37.49,39.23c7.67,0,15.49-1.59,20.55-4.05L858.06,464.67z"/>
	<path class="st1" d="M896.42,381.01h-29.67V370.3h72.23v10.71h-29.82v86.85h-12.74V381.01z"/>
</g>
</svg>
