<?xml version="1.0" encoding="utf-8"?>
<!-- Generator: Adobe Illustrator 23.0.1, SVG Export Plug-In . SVG Version: 6.00 Build 0)  -->
<svg version="1.1" id="Layer_1" xmlns="http://www.w3.org/2000/svg" xmlns:xlink="http://www.w3.org/1999/xlink" x="0px" y="0px"
	 viewBox="0 0 1280 854" style="enable-background:new 0 0 1280 854;" xml:space="preserve">
<style type="text/css">
	.st0{fill:#31474D;stroke:#000000;stroke-miterlimit:10;}
	.st1{fill:#FFFFFF;}
	.st2{fill:#991B43;}
	.st3{fill:#148F45;}
	.st4{fill:#A6A436;}
	.st5{fill:#0A78BE;}
	.st6{fill:#D3CF4E;stroke:#000000;stroke-width:7.3121;stroke-miterlimit:10;}
	.st7{fill:#FFFFFF;stroke:#000000;stroke-width:0.9714;stroke-miterlimit:10;}
	.st8{fill:#D81C53;}
	.st9{fill:#FBEFCD;}
	.st10{fill:#11A292;}
	.st11{fill:#FAEED5;}
	.st12{fill:#1F9C98;}
	.st13{fill:#FFFFFF;stroke:#000000;stroke-width:1.6098;stroke-miterlimit:10;}
</style>
<rect class="st0" width="1280" height="854"/>
<path class="st1" d="M187.13,431.46l19.96,7.04v9.8l-30.14-12.78v-8.26l30.14-12.78v9.8L187.13,431.46z"/>
<path class="st2" d="M256.1,436.12c-0.4,5.48-2.42,9.8-6.07,12.95c-3.65,3.15-8.47,4.73-14.44,4.73c-6.54,0-11.68-2.2-15.42-6.6
	c-3.75-4.4-5.62-10.44-5.62-18.12v-3.12c0-4.9,0.86-9.22,2.59-12.95c1.73-3.73,4.2-6.6,7.4-8.59c3.21-2,6.94-2.99,11.19-2.99
	c5.88,0,10.62,1.58,14.21,4.73c3.59,3.15,5.67,7.57,6.23,13.27h-10.5c-0.26-3.29-1.17-5.68-2.75-7.16
	c-1.58-1.48-3.97-2.22-7.19-2.22c-3.5,0-6.12,1.25-7.86,3.76c-1.74,2.51-2.63,6.4-2.68,11.68v3.85c0,5.51,0.83,9.53,2.5,12.08
	c1.67,2.54,4.3,3.82,7.89,3.82c3.24,0,5.67-0.74,7.26-2.22c1.6-1.48,2.51-3.78,2.75-6.88H256.1z"/>
<path class="st3" d="M304.87,428.77c0,5.02-0.89,9.42-2.66,13.2c-1.77,3.78-4.31,6.7-7.61,8.75c-3.3,2.05-7.09,3.08-11.36,3.08
	c-4.22,0-7.99-1.02-11.31-3.05c-3.31-2.03-5.88-4.93-7.7-8.7c-1.82-3.77-2.74-8.1-2.77-13.01v-2.52c0-5.02,0.9-9.43,2.71-13.25
	c1.81-3.82,4.36-6.75,7.67-8.79c3.3-2.04,7.08-3.06,11.33-3.06c4.25,0,8.02,1.02,11.33,3.06c3.3,2.04,5.86,4.97,7.67,8.79
	c1.81,3.82,2.71,8.22,2.71,13.22V428.77z M294.22,426.46c0-5.34-0.96-9.41-2.87-12.18c-1.91-2.78-4.65-4.17-8.19-4.17
	c-3.52,0-6.24,1.37-8.16,4.11c-1.91,2.74-2.88,6.76-2.91,12.06v2.48c0,5.21,0.96,9.24,2.87,12.11c1.91,2.87,4.67,4.31,8.26,4.31
	c3.52,0,6.23-1.38,8.12-4.15c1.89-2.77,2.85-6.8,2.87-12.1V426.46z"/>
<path class="st4" d="M312.5,453.1v-50.97h15.68c4.48,0,8.49,1.01,12.03,3.03c3.54,2.02,6.3,4.89,8.28,8.61
	c1.98,3.72,2.98,7.95,2.98,12.69v2.35c0,4.74-0.98,8.95-2.92,12.64c-1.95,3.69-4.7,6.55-8.24,8.58c-3.55,2.03-7.55,3.06-12.01,3.08
	H312.5z M323,410.63v34.03h5.08c4.11,0,7.25-1.34,9.42-4.03c2.17-2.68,3.28-6.52,3.33-11.52v-2.7c0-5.18-1.07-9.11-3.22-11.78
	c-2.15-2.67-5.29-4.01-9.42-4.01H323z"/>
<path class="st5" d="M389.77,431.01H369.6v13.65h23.67v8.44H359.1v-50.97h34.1v8.51h-23.6v12.15h20.17V431.01z"/>
<path class="st1" d="M401.95,457.47h-7.53l18.77-55.35h7.53L401.95,457.47z"/>
<path class="st1" d="M446.2,431.36l-20.34-7.11v-9.73l30.49,12.78v8.23l-30.49,12.81v-9.77L446.2,431.36z"/>
<polygon class="st6" points="596.37,424.63 632.75,367.2 667.03,424.63 632.75,462.12 "/>
<polygon class="st6" points="708.45,467.87 672.07,525.31 637.8,467.87 672.07,430.38 "/>
<polygon class="st6" points="627.77,467.87 591.39,525.31 557.11,467.87 591.39,430.38 "/>
<g>
	<path class="st7" d="M582.94,424.9c1.68,0.65,3.06,1.67,4.14,3.07c1.08,1.39,1.62,3.15,1.62,5.27c0,2.1-0.54,3.85-1.62,5.25
		c-1.08,1.4-2.46,2.43-4.15,3.08c-1.69,0.65-3.46,0.98-5.31,0.98h-9.31v-3.45h3.04v-11.73h-3.04v-3.45h9.31
		C579.48,423.92,581.25,424.25,582.94,424.9z M582.04,437.88c1.38-0.81,2.06-2.36,2.06-4.64c0-3.91-2.33-5.87-6.98-5.87h-1.38v11.73
		h1.38C579.03,439.1,580.67,438.69,582.04,437.88z"/>
	<path class="st7" d="M605.88,430.84v-3.48h-8.06v4.54h2.85v-2.15h3.23v7.39h-3.23V435h-2.85v4.1h8.06v-3.48h3.83v6.92h-19.22v-3.45
		h3.01v-11.73h-3.01v-3.45h19.22v6.92H605.88z"/>
	<path class="st7" d="M627.63,433.75c1.32,0.96,1.98,2.24,1.98,3.83c0,1.1-0.28,2.05-0.84,2.85c-0.56,0.8-1.33,1.41-2.31,1.83
		s-2.08,0.64-3.31,0.64c-1.16,0-2.27-0.23-3.34-0.68c-1.07-0.45-2.13-1.09-3.18-1.93v2.23h-3.83v-6.79l2.72-0.14
		c0.94,1.14,2.12,2.07,3.53,2.78c1.41,0.72,2.68,1.07,3.8,1.07c0.67,0,1.2-0.12,1.59-0.35c0.39-0.24,0.58-0.59,0.58-1.06
		c0-0.56-0.44-1.08-1.33-1.55c-0.89-0.47-2.43-1-4.62-1.6c-2.17-0.6-3.76-1.38-4.75-2.35c-1-0.97-1.49-2.19-1.49-3.65
		c0-1.07,0.3-2,0.9-2.81c0.6-0.81,1.38-1.43,2.36-1.87c0.98-0.44,2.02-0.67,3.12-0.67c2.23,0,4.09,0.7,5.59,2.09v-1.71h3.83v6.6
		l-2.58,0.14c-0.6-1.16-1.43-2.06-2.48-2.7c-1.06-0.64-2.14-0.96-3.24-0.96c-0.87,0-1.57,0.15-2.1,0.46
		c-0.53,0.31-0.8,0.72-0.8,1.25c0,0.51,0.33,0.95,1,1.32c0.67,0.37,1.88,0.79,3.64,1.26C624.45,431.97,626.31,432.79,627.63,433.75z
		"/>
	<path class="st7" d="M638.84,427.37v11.73h3.07v3.45H631.4v-3.45h3.04v-11.73h-3.04v-3.45h10.51v3.45H638.84z"/>
	<path class="st7" d="M650.97,427.72c-0.88,0.49-1.57,1.2-2.09,2.15c-0.52,0.94-0.77,2.06-0.77,3.37c0,1.2,0.25,2.26,0.75,3.19
		c0.5,0.93,1.19,1.66,2.08,2.17c0.89,0.52,1.91,0.77,3.07,0.77c1.03,0,1.91-0.11,2.65-0.33c0.73-0.22,1.42-0.52,2.05-0.92v-2.44
		h-4.97v-3.23h8.91v7.58c-0.98,0.85-2.23,1.55-3.75,2.09s-3.15,0.81-4.89,0.81c-2.14,0-4-0.42-5.58-1.28
		c-1.58-0.85-2.8-2.01-3.64-3.47c-0.84-1.47-1.26-3.11-1.26-4.94c0-1.77,0.41-3.4,1.24-4.89c0.82-1.48,1.95-2.66,3.37-3.52
		c1.42-0.86,2.98-1.29,4.68-1.29c1.2,0,2.29,0.18,3.3,0.53c1,0.35,1.9,0.86,2.67,1.53v-1.68h3.86v6.19l-2.88,0.19
		c-0.56-0.91-1.34-1.68-2.35-2.34c-1-0.65-2.16-0.98-3.46-0.98C652.84,426.99,651.84,427.23,650.97,427.72z"/>
	<path class="st7" d="M689.18,427.37h-2.88v15.34l-2.36,0.03l-11.76-12.95v9.31h3.04v3.45h-10.21v-3.45h3.04v-11.73h-3.04v-3.45
		h7.17l10.1,11.43v-7.98h-3.04v-3.45h9.94V427.37z"/>
</g>
<g>
	<path d="M847.56,446.26v46.3h104.16V435.7c0,0-30.3,11.91-49.02-18.04h-13.28C889.43,417.66,884.32,451.02,847.56,446.26z"/>
	<circle cx="855.22" cy="411.24" r="31.84"/>
	<circle cx="936.62" cy="398.02" r="36.98"/>
	<circle class="st1" cx="924.76" cy="380.54" r="9.49"/>
	<circle class="st1" cx="950.3" cy="381.12" r="9.49"/>
	<circle class="st1" cx="956.94" cy="405.07" r="9.49"/>
	<circle class="st1" cx="936.62" cy="419.64" r="9.49"/>
	<circle class="st1" cx="917.25" cy="404.35" r="9.49"/>
	<circle class="st1" cx="844.91" cy="396.83" r="7.63"/>
	<circle class="st1" cx="866.29" cy="396.83" r="7.63"/>
	<circle class="st1" cx="872.43" cy="417.66" r="7.63"/>
	<circle class="st1" cx="854.37" cy="429.58" r="7.63"/>
	<circle class="st1" cx="837.28" cy="416.43" r="7.63"/>
	<polygon points="956.22,472.96 956.22,436.27 974.37,426.56 974.37,481.78 	"/>
	<polygon points="835.6,473.08 835.6,454.67 844.05,459.78 844.05,470.96 	"/>
	<polygon class="st8" points="978.6,425.17 1069.88,381.12 1069.88,405.07 978.6,435 	"/>
	<polygon class="st9" points="978.6,444.88 1069.88,430.13 1069.88,406.1 978.6,435.5 	"/>
	<polygon class="st10" points="978.6,445.81 1069.88,431.12 1069.88,455.33 978.6,455.33 	"/>
	<polygon class="st8" points="978.6,456.16 1069.88,456.4 1069.88,479.25 978.6,465.29 	"/>
	<polygon class="st11" points="978.6,465.85 1069.88,480.49 1069.88,502.87 978.6,474.46 	"/>
	<polygon class="st12" points="978.6,475.06 1069.88,504.57 1069.88,529.1 978.6,484.36 	"/>
</g>
<g>
	<path class="st13" d="M876.5,457.78v8.26h-4.41v-4.29h-8.2v5.26h2.75v-2.47h3.69v8.54h-3.69v-2.5h-2.75v4.7h3.76v3.98h-12.24v-3.98
		h3.51v-13.52h-3.51v-3.98H876.5z"/>
	<path class="st13" d="M887.15,461.75v13.52h3.54v3.98h-12.11v-3.98h3.51v-13.52h-3.51v-3.98h12.11v3.98H887.15z"/>
	<path class="st13" d="M913.6,470.23v9.01h-20.85v-3.98h3.51v-13.52h-3.51v-3.98h12.02v3.98h-3.47v13.52h7.54v-5.04H913.6z"/>
	<path class="st13" d="M944.99,461.75v13.52h3.51v3.98h-11.74v-3.98h3.29v-4.66c0-1.52,0.24-3.63,0.72-6.32l-7.42,14.99h-2.79
		l-7.26-14.65c0.38,2.63,0.56,4.62,0.56,5.98v4.66h3.29v3.98h-11.49v-3.98h3.51v-13.52h-3.51v-3.98h9.05l7.42,14.81l7.29-14.81h9.08
		v3.98H944.99z"/>
</g>
</svg>
