<?xml version="1.0" encoding="utf-8"?>
<!-- Generator: Adobe Illustrator 23.0.1, SVG Export Plug-In . SVG Version: 6.00 Build 0)  -->
<svg version="1.1" id="Layer_1" xmlns="http://www.w3.org/2000/svg" xmlns:xlink="http://www.w3.org/1999/xlink" x="0px" y="0px"
	 viewBox="0 0 105 36" style="enable-background:new 0 0 105 36;" xml:space="preserve">
<style type="text/css">
	.st0{fill:#FEFFFF;stroke:#000000;stroke-width:0.5;stroke-miterlimit:10;}
</style>
<g>
	<path class="st0" d="M9.09,16.32v-1.54H5.52v2h1.26v-0.95h1.43v3.26H6.78v-0.95H5.52v1.81h3.56v-1.54h1.69v3.06h-8.5v-1.52h1.33
		v-5.18H2.28v-1.52h8.5v3.06H9.09z"/>
	<path class="st0" d="M21.46,20.8c-0.23,0.26-0.49,0.46-0.77,0.62c-0.28,0.16-0.64,0.24-1.06,0.24c-0.77,0-1.41-0.27-1.91-0.8
		c-0.51-0.53-0.89-1.36-1.15-2.49l-0.04-0.16h-1.27v1.76h1.28v1.51h-4.57v-1.52h1.34v-5.18h-1.34v-1.52h4.93
		c0.99,0,1.79,0.21,2.39,0.64c0.6,0.43,0.9,1.03,0.9,1.82c0,0.62-0.17,1.14-0.51,1.54s-0.82,0.68-1.45,0.83l0.06,0.18
		c0.19,0.6,0.41,1.02,0.65,1.25c0.24,0.24,0.51,0.35,0.8,0.35c0.18,0,0.33-0.03,0.46-0.09c0.13-0.06,0.25-0.15,0.37-0.26L21.46,20.8
		z M15.26,16.79h1.7c0.34,0,0.64-0.08,0.91-0.25s0.4-0.44,0.4-0.82c0-0.34-0.13-0.58-0.39-0.72c-0.26-0.14-0.57-0.22-0.92-0.22h-1.7
		V16.79z"/>
	<path class="st0" d="M24.83,14.79v5.18h1.36v1.52h-4.64v-1.52h1.34v-5.18h-1.34v-1.52h4.64v1.52H24.83z"/>
	<path class="st0" d="M35.28,19.54c-0.44,0.67-0.99,1.19-1.64,1.56c-0.65,0.37-1.4,0.55-2.25,0.55c-0.83,0-1.59-0.19-2.28-0.56
		c-0.69-0.38-1.23-0.89-1.63-1.54c-0.4-0.65-0.59-1.36-0.59-2.15c0-0.83,0.18-1.58,0.55-2.23c0.37-0.66,0.86-1.17,1.49-1.53
		c0.62-0.36,1.3-0.55,2.03-0.55c0.94,0,1.73,0.29,2.35,0.88v-0.71h1.74v2.87l-1.28,0.12c-0.22-0.48-0.54-0.87-0.96-1.18
		s-0.93-0.46-1.54-0.46c-0.41,0-0.79,0.11-1.15,0.33s-0.65,0.54-0.87,0.95s-0.33,0.91-0.33,1.48c0,0.5,0.11,0.95,0.33,1.36
		s0.52,0.74,0.89,0.98c0.38,0.24,0.79,0.36,1.25,0.36c0.61,0,1.11-0.13,1.51-0.39c0.4-0.26,0.78-0.65,1.13-1.17L35.28,19.54z"/>
	<path class="st0" d="M45.93,14.79h-1.3v4.03c0,0.58-0.13,1.09-0.39,1.52c-0.26,0.43-0.61,0.75-1.06,0.98
		c-0.45,0.22-0.94,0.34-1.49,0.34c-0.5,0-0.96-0.08-1.39-0.24c-0.43-0.16-0.78-0.36-1.03-0.6l0.79-1.32
		c0.22,0.16,0.45,0.3,0.71,0.41c0.26,0.12,0.51,0.17,0.74,0.17c0.78,0,1.18-0.45,1.18-1.36l-0.02-3.94h-2.02v-1.52h5.28V14.79z"/>
	<path class="st0" d="M46.07,21.36c-0.25-0.19-0.37-0.44-0.37-0.73c0-0.3,0.12-0.56,0.37-0.76c0.25-0.2,0.55-0.3,0.9-0.3
		c0.38,0,0.68,0.1,0.92,0.29c0.24,0.2,0.35,0.45,0.35,0.76c0,0.3-0.12,0.55-0.35,0.74c-0.24,0.19-0.54,0.28-0.92,0.28
		C46.62,21.65,46.32,21.55,46.07,21.36z"/>
	<path class="st0" d="M59.32,13.69c0.74,0.29,1.35,0.74,1.83,1.36c0.48,0.62,0.71,1.39,0.71,2.33c0,0.93-0.24,1.7-0.71,2.32
		c-0.48,0.62-1.09,1.07-1.84,1.36s-1.53,0.43-2.35,0.43h-4.12v-1.52h1.34v-5.18h-1.34v-1.52h4.12
		C57.79,13.26,58.57,13.41,59.32,13.69z M58.92,19.43c0.61-0.36,0.91-1.04,0.91-2.05c0-1.73-1.03-2.59-3.08-2.59h-0.61v5.18h0.61
		C57.59,19.97,58.31,19.79,58.92,19.43z"/>
	<path class="st0" d="M72.72,14.79h-1.33v3.44c0,0.66-0.17,1.24-0.51,1.76c-0.34,0.52-0.81,0.93-1.4,1.22
		c-0.6,0.29-1.26,0.44-1.99,0.44c-0.75,0-1.42-0.15-2.02-0.44c-0.59-0.29-1.05-0.7-1.38-1.21c-0.33-0.52-0.49-1.11-0.49-1.77v-3.44
		h-1.34v-1.52h4.46v1.52h-1.16l-0.01,3.32c0,0.58,0.18,1.06,0.55,1.42c0.37,0.36,0.83,0.55,1.39,0.55c0.37,0,0.7-0.08,1-0.25
		s0.53-0.4,0.7-0.7c0.17-0.3,0.25-0.65,0.25-1.04l-0.02-3.3h-1.18v-1.52h4.48V14.79z"/>
	<path class="st0" d="M82.69,20.8c-0.23,0.26-0.49,0.46-0.77,0.62c-0.28,0.16-0.64,0.24-1.06,0.24c-0.77,0-1.41-0.27-1.91-0.8
		c-0.51-0.53-0.89-1.36-1.15-2.49l-0.04-0.16h-1.27v1.76h1.28v1.51H73.2v-1.52h1.34v-5.18H73.2v-1.52h4.93
		c0.99,0,1.79,0.21,2.39,0.64c0.6,0.43,0.9,1.03,0.9,1.82c0,0.62-0.17,1.14-0.51,1.54s-0.82,0.68-1.45,0.83l0.06,0.18
		c0.19,0.6,0.41,1.02,0.65,1.25c0.24,0.24,0.51,0.35,0.8,0.35c0.18,0,0.33-0.03,0.46-0.09c0.13-0.06,0.25-0.15,0.37-0.26L82.69,20.8
		z M76.49,16.79h1.7c0.34,0,0.64-0.08,0.91-0.25c0.27-0.17,0.4-0.44,0.4-0.82c0-0.34-0.13-0.58-0.39-0.72
		c-0.26-0.14-0.57-0.22-0.92-0.22h-1.7V16.79z"/>
	<path class="st0" d="M92.14,19.97v1.52h-4.2v-1.52h1.21l-0.46-1.2h-3.01l-0.44,1.2h1.33v1.52h-4.12v-1.52h0.97l2.21-5.2h-0.85
		v-1.51h4.98v1.51h-0.84l2.22,5.2H92.14z M88.19,17.43l-1-2.65h-0.01l-1,2.65H88.19z"/>
	<path class="st0" d="M103.37,14.79h-1.27v6.78l-1.04,0.01l-5.2-5.72v4.12h1.34v1.52h-4.51v-1.52h1.34v-5.18h-1.34v-1.52h3.17
		l4.46,5.05v-3.53h-1.34v-1.52h4.39V14.79z"/>
</g>
</svg>
