<?xml version="1.0" encoding="utf-8"?>
<!-- Generator: Adobe Illustrator 23.0.1, SVG Export Plug-In . SVG Version: 6.00 Build 0)  -->
<svg version="1.1" id="Layer_1" xmlns="http://www.w3.org/2000/svg" xmlns:xlink="http://www.w3.org/1999/xlink" x="0px" y="0px"
	 viewBox="0 0 1280 856" style="enable-background:new 0 0 1280 856;" xml:space="preserve">
<style type="text/css">
	.st0{fill:#314950;stroke:#000000;stroke-miterlimit:10;}
	.st1{fill:#DBD85E;stroke:#000000;stroke-width:1.3445;stroke-miterlimit:10;}
	.st2{fill:#F4EDEF;stroke:#000000;stroke-width:3;stroke-miterlimit:10;}
</style>
<rect y="0" class="st0" width="1280" height="856"/>
<rect x="278.48" y="253.08" class="st1" width="723.05" height="200"/>
<g>
	<path class="st2" d="M408.87,346.21c-0.51-9.61-1.12-21.16-1.02-29.74h-0.31c-2.35,8.07-5.21,16.66-8.69,26.16l-12.16,33.42h-6.75
		l-11.14-32.81c-3.27-9.71-6.03-18.6-7.97-26.78h-0.2c-0.2,8.58-0.72,20.13-1.33,30.46l-1.84,29.54h-8.48l4.8-68.89h11.34
		l11.75,33.32c2.86,8.48,5.21,16.05,6.95,23.2h0.31c1.74-6.95,4.19-14.51,7.26-23.2l12.26-33.32h11.34l4.29,68.89h-8.69
		L408.87,346.21z"/>
	<path class="st2" d="M448.32,376.47v-29.23l-21.77-39.66h10.12l9.71,19.01c2.66,5.21,4.7,9.4,6.85,14.21h0.2
		c1.94-4.5,4.29-8.99,6.95-14.21l9.91-19.01h10.12l-23.1,39.55v29.33H448.32z"/>
	<path class="st2" d="M509.95,308.4c4.29-0.72,9.91-1.33,17.07-1.33c8.79,0,15.23,2.04,19.32,5.72c3.78,3.27,6.03,8.28,6.03,14.41
		c0,6.23-1.84,11.14-5.31,14.72c-4.7,5.01-12.37,7.56-21.05,7.56c-2.66,0-5.11-0.1-7.15-0.61v27.59h-8.89V308.4z M518.84,341.62
		c1.94,0.51,4.39,0.72,7.36,0.72c10.73,0,17.27-5.21,17.27-14.72c0-9.1-6.44-13.49-16.25-13.49c-3.88,0-6.85,0.31-8.38,0.72V341.62z
		"/>
	<path class="st2" d="M564.32,308.5c4.5-0.92,10.94-1.43,17.07-1.43c9.5,0,15.64,1.74,19.93,5.62c3.47,3.07,5.42,7.77,5.42,13.08
		c0,9.1-5.72,15.13-12.98,17.58v0.31c5.31,1.84,8.48,6.75,10.12,13.9c2.25,9.61,3.88,16.25,5.31,18.91h-9.2
		c-1.12-1.94-2.66-7.87-4.6-16.45c-2.04-9.5-5.72-13.08-13.8-13.39h-8.38v29.84h-8.89V308.5z M573.21,339.88h9.1
		c9.5,0,15.54-5.21,15.54-13.08c0-8.89-6.44-12.78-15.84-12.88c-4.29,0-7.36,0.41-8.79,0.82V339.88z"/>
	<path class="st2" d="M678.48,341.31c0,23.71-14.41,36.28-31.99,36.28c-18.19,0-30.97-14.1-30.97-34.95
		c0-21.87,13.59-36.18,31.99-36.18C666.32,306.46,678.48,320.87,678.48,341.31z M625.03,342.43c0,14.72,7.97,27.9,21.97,27.9
		c14.1,0,22.08-12.98,22.08-28.62c0-13.7-7.15-28-21.97-28C632.39,313.71,625.03,327.31,625.03,342.43z"/>
	<path class="st2" d="M704.13,307.58h8.89v46.09c0,18.29-8.99,23.92-20.85,23.92c-3.27,0-7.26-0.72-9.5-1.64l1.33-7.26
		c1.84,0.72,4.5,1.33,7.46,1.33c7.97,0,12.67-3.58,12.67-17.07V307.58z"/>
	<path class="st2" d="M763.51,344.17h-26.78v24.84h29.84v7.46h-38.74v-68.89h37.2v7.46h-28.31v21.77h26.78V344.17z"/>
	<path class="st2" d="M826.26,374.22c-3.27,1.64-9.81,3.27-18.19,3.27c-19.42,0-34.03-12.26-34.03-34.85
		c0-21.56,14.61-36.18,35.98-36.18c8.58,0,14,1.84,16.35,3.07l-2.15,7.26c-3.37-1.63-8.18-2.86-13.9-2.86
		c-16.15,0-26.88,10.32-26.88,28.41c0,16.86,9.71,27.7,26.47,27.7c5.42,0,10.94-1.12,14.51-2.86L826.26,374.22z"/>
	<path class="st2" d="M853.34,315.15h-20.95v-7.56h51v7.56h-21.05v61.32h-8.99V315.15z"/>
	<path class="st2" d="M889.22,365.63c3.99,2.45,9.81,4.5,15.94,4.5c9.1,0,14.41-4.8,14.41-11.75c0-6.44-3.68-10.12-12.98-13.7
		c-11.24-3.99-18.19-9.81-18.19-19.52c0-10.73,8.89-18.7,22.28-18.7c7.05,0,12.16,1.64,15.23,3.37l-2.45,7.26
		c-2.25-1.23-6.85-3.27-13.08-3.27c-9.4,0-12.98,5.62-12.98,10.32c0,6.44,4.19,9.61,13.7,13.29c11.65,4.5,17.58,10.12,17.58,20.24
		c0,10.63-7.87,19.83-24.12,19.83c-6.64,0-13.9-1.94-17.58-4.39L889.22,365.63z"/>
</g>
<g>
	<path class="st2" d="M401.71,346.21c-0.51-9.61-1.12-21.16-1.02-29.74h-0.31c-2.35,8.07-5.21,16.66-8.69,26.16l-12.16,33.42h-6.75
		l-11.14-32.81c-3.27-9.71-6.03-18.6-7.97-26.78h-0.2c-0.2,8.58-0.72,20.13-1.33,30.46l-1.84,29.54h-8.48l4.8-68.89h11.34
		l11.75,33.32c2.86,8.48,5.21,16.05,6.95,23.2h0.31c1.74-6.95,4.19-14.51,7.26-23.2l12.26-33.32h11.34l4.29,68.89h-8.69
		L401.71,346.21z"/>
	<path class="st2" d="M441.16,376.47v-29.23l-21.77-39.66h10.12l9.71,19.01c2.66,5.21,4.7,9.4,6.85,14.21h0.2
		c1.94-4.5,4.29-8.99,6.95-14.21l9.91-19.01h10.12l-23.1,39.55v29.33H441.16z"/>
	<path class="st2" d="M502.78,308.4c4.29-0.72,9.91-1.33,17.07-1.33c8.79,0,15.23,2.04,19.32,5.72c3.78,3.27,6.03,8.28,6.03,14.41
		c0,6.23-1.84,11.14-5.31,14.72c-4.7,5.01-12.37,7.56-21.05,7.56c-2.66,0-5.11-0.1-7.15-0.61v27.59h-8.89V308.4z M511.67,341.62
		c1.94,0.51,4.39,0.72,7.36,0.72c10.73,0,17.27-5.21,17.27-14.72c0-9.1-6.44-13.49-16.25-13.49c-3.88,0-6.85,0.31-8.38,0.72V341.62z
		"/>
	<path class="st2" d="M557.15,308.5c4.5-0.92,10.94-1.43,17.07-1.43c9.5,0,15.64,1.74,19.93,5.62c3.47,3.07,5.42,7.77,5.42,13.08
		c0,9.1-5.72,15.13-12.98,17.58v0.31c5.31,1.84,8.48,6.75,10.12,13.9c2.25,9.61,3.88,16.25,5.31,18.91h-9.2
		c-1.12-1.94-2.66-7.87-4.6-16.45c-2.04-9.5-5.72-13.08-13.8-13.39h-8.38v29.84h-8.89V308.5z M566.04,339.88h9.1
		c9.5,0,15.54-5.21,15.54-13.08c0-8.89-6.44-12.78-15.84-12.88c-4.29,0-7.36,0.41-8.79,0.82V339.88z"/>
	<path class="st2" d="M671.31,341.31c0,23.71-14.41,36.28-31.99,36.28c-18.19,0-30.97-14.1-30.97-34.95
		c0-21.87,13.59-36.18,31.99-36.18C659.15,306.46,671.31,320.87,671.31,341.31z M617.86,342.43c0,14.72,7.97,27.9,21.97,27.9
		c14.1,0,22.08-12.98,22.08-28.62c0-13.7-7.15-28-21.97-28C625.22,313.71,617.86,327.31,617.86,342.43z"/>
	<path class="st2" d="M696.96,307.58h8.89v46.09c0,18.29-8.99,23.92-20.85,23.92c-3.27,0-7.26-0.72-9.5-1.64l1.33-7.26
		c1.84,0.72,4.5,1.33,7.46,1.33c7.97,0,12.67-3.58,12.67-17.07V307.58z"/>
	<path class="st2" d="M756.34,344.17h-26.78v24.84h29.84v7.46h-38.74v-68.89h37.2v7.46h-28.31v21.77h26.78V344.17z"/>
	<path class="st2" d="M819.09,374.22c-3.27,1.64-9.81,3.27-18.19,3.27c-19.42,0-34.03-12.26-34.03-34.85
		c0-21.56,14.61-36.18,35.98-36.18c8.58,0,14,1.84,16.35,3.07l-2.15,7.26c-3.37-1.63-8.18-2.86-13.9-2.86
		c-16.15,0-26.88,10.32-26.88,28.41c0,16.86,9.71,27.7,26.47,27.7c5.42,0,10.94-1.12,14.51-2.86L819.09,374.22z"/>
	<path class="st2" d="M846.18,315.15h-20.95v-7.56h51v7.56h-21.05v61.32h-8.99V315.15z"/>
	<path class="st2" d="M882.05,365.63c3.99,2.45,9.81,4.5,15.94,4.5c9.1,0,14.41-4.8,14.41-11.75c0-6.44-3.68-10.12-12.98-13.7
		c-11.24-3.99-18.19-9.81-18.19-19.52c0-10.73,8.89-18.7,22.28-18.7c7.05,0,12.16,1.64,15.23,3.37l-2.45,7.26
		c-2.25-1.23-6.85-3.27-13.08-3.27c-9.4,0-12.98,5.62-12.98,10.32c0,6.44,4.19,9.61,13.7,13.29c11.65,4.5,17.58,10.12,17.58,20.24
		c0,10.63-7.87,19.83-24.12,19.83c-6.64,0-13.9-1.94-17.58-4.39L882.05,365.63z"/>
</g>
</svg>
