<?xml version="1.0" encoding="utf-8"?>
<!-- Generator: Adobe Illustrator 23.0.1, SVG Export Plug-In . SVG Version: 6.00 Build 0)  -->
<svg version="1.1" id="Layer_1" xmlns="http://www.w3.org/2000/svg" xmlns:xlink="http://www.w3.org/1999/xlink" x="0px" y="0px"
	 viewBox="0 0 1280 856" style="enable-background:new 0 0 1280 856;" xml:space="preserve">
<style type="text/css">
	.st0{fill:#31484F;stroke:#000000;stroke-miterlimit:10;}
	.st1{fill:#FAFDFF;stroke:#000000;stroke-width:11;stroke-miterlimit:10;}
	.st2{stroke:#000000;stroke-width:2;stroke-miterlimit:10;}
	.st3{fill:#E4E4E4;}
	.st4{fill:#FFFEFF;stroke:#000000;stroke-width:9.4272;stroke-miterlimit:10;}
	.st5{stroke:#000000;stroke-width:9.4272;stroke-miterlimit:10;}
	.st6{stroke:#000000;stroke-width:1.7676;stroke-miterlimit:10;}
</style>
<rect x="0" y="0" class="st0" width="1280" height="856"/>
<rect x="417.27" y="124.79" class="st1" width="445.45" height="606.42"/>
<g>
	<path class="st2" d="M500.94,180.54c3.71-0.76,9.02-1.18,14.08-1.18c7.84,0,12.9,1.43,16.44,4.64c2.87,2.53,4.47,6.41,4.47,10.79
		c0,7.5-4.72,12.47-10.7,14.5v0.25c4.38,1.52,7,5.56,8.34,11.46c1.85,7.92,3.2,13.4,4.38,15.59h-7.59
		c-0.93-1.6-2.19-6.49-3.79-13.57c-1.69-7.84-4.72-10.79-11.38-11.04h-6.91v24.61h-7.33V180.54z M508.27,206.42h7.5
		c7.84,0,12.81-4.3,12.81-10.79c0-7.33-5.31-10.54-13.06-10.62c-3.54,0-6.07,0.34-7.25,0.67V206.42z"/>
	<path class="st2" d="M575.7,209.96h-22.08v20.48h24.61v6.15h-31.95v-56.81h30.68v6.15h-23.35v17.95h22.08V209.96z"/>
	<path class="st2" d="M586.74,227.66c3.29,2.02,8.09,3.71,13.15,3.71c7.5,0,11.88-3.96,11.88-9.69c0-5.31-3.03-8.34-10.71-11.29
		c-9.27-3.29-15-8.09-15-16.1c0-8.85,7.33-15.42,18.38-15.42c5.82,0,10.03,1.35,12.56,2.78l-2.02,5.98
		c-1.85-1.01-5.65-2.7-10.79-2.7c-7.75,0-10.7,4.64-10.7,8.51c0,5.31,3.46,7.92,11.29,10.96c9.61,3.71,14.5,8.34,14.5,16.69
		c0,8.77-6.49,16.35-19.89,16.35c-5.48,0-11.46-1.6-14.5-3.62L586.74,227.66z"/>
	<path class="st2" d="M636.64,179.78v33.63c0,12.73,5.65,18.12,13.23,18.12c8.43,0,13.82-5.56,13.82-18.12v-33.63h7.42v33.13
		c0,17.45-9.19,24.61-21.49,24.61c-11.63,0-20.4-6.66-20.4-24.28v-33.46H636.64z"/>
	<path class="st2" d="M731.71,211.65c-0.42-7.92-0.93-17.45-0.84-24.53h-0.25c-1.94,6.66-4.3,13.74-7.16,21.58l-10.03,27.56h-5.56
		l-9.19-27.06c-2.7-8.01-4.97-15.34-6.58-22.08h-0.17c-0.17,7.08-0.59,16.6-1.1,25.12l-1.52,24.36h-7l3.96-56.81h9.36l9.69,27.48
		c2.36,7,4.3,13.23,5.73,19.13h0.25c1.43-5.73,3.46-11.97,5.98-19.13l10.11-27.48h9.36l3.54,56.81h-7.16L731.71,211.65z"/>
	<path class="st2" d="M781.02,209.96h-22.08v20.48h24.61v6.15H751.6v-56.81h30.68v6.15h-23.35v17.95h22.08V209.96z"/>
</g>
<rect x="494.53" y="294.35" class="st3" width="291.98" height="20.59"/>
<rect x="494.53" y="335.73" class="st3" width="291.98" height="20.59"/>
<rect x="494.53" y="377.11" class="st3" width="291.98" height="20.59"/>
<rect x="494.53" y="418.49" class="st3" width="291.98" height="20.59"/>
<rect x="494.53" y="459.87" class="st3" width="291.98" height="20.59"/>
<rect x="494.53" y="501.25" class="st3" width="291.98" height="20.59"/>
<rect x="494.53" y="542.63" class="st3" width="291.98" height="20.59"/>
<rect x="494.53" y="584.01" class="st3" width="291.98" height="20.59"/>
<rect x="494.53" y="625.39" class="st3" width="291.98" height="20.59"/>
<rect x="494.53" y="666.78" class="st3" width="291.98" height="20.59"/>
<g>
	<g>
		<path class="st4" d="M891.57,327.65l-27.38-21.07l-13.88,18.04c-0.68,0.64-1.34,1.33-1.93,2.1l-131.8,171.27
			c-5.9,7.67-4.47,18.68,3.2,24.58v0c7.67,5.9,18.68,4.47,24.58-3.2l131.8-171.27c0.59-0.77,1.09-1.58,1.53-2.4L891.57,327.65z"/>
		<path class="st4" d="M913.93,297.3c4.2-7.05,2.57-16.28-4.1-21.41c-6.66-5.13-16.01-4.34-21.75,1.52l-0.1-0.08l-1.2,1.56l0,0
			l-1.03,1.33l0,0l-18.85,24.49l26.05,20.05l18.85-24.49c0,0,0,0,0,0l0.84-1.09l1.39-1.81L913.93,297.3z"/>
	</g>
	<polygon class="st5" points="715.29,504.22 702.46,542.63 737.58,521.07 	"/>
	<g>
		<path class="st6" d="M781.42,425.87c0.62-1.03,1.49-2.33,2.77-3.84c1.57-1.85,3.16-2.85,4.66-3.05c1.37-0.21,2.83,0.21,4.12,1.31
			c1.32,1.12,2.02,2.38,2.15,3.75c0.21,1.89-0.62,3.96-2.17,5.79c-0.48,0.56-0.94,1.06-1.41,1.4l5.82,4.94l-1.59,1.88L781.42,425.87
			z M790.02,429.94c0.45-0.32,0.94-0.8,1.47-1.42c1.92-2.26,1.99-4.58-0.01-6.28c-1.92-1.63-4-1.06-5.75,1.01
			c-0.69,0.82-1.16,1.5-1.35,1.9L790.02,429.94z"/>
		<path class="st6" d="M805.08,413.28l-4.79,5.65l5.24,4.44l5.34-6.3l1.57,1.34l-6.93,8.17l-14.53-12.33l6.66-7.85l1.57,1.33
			l-5.07,5.97l4.59,3.9l4.79-5.65L805.08,413.28z"/>
		<path class="st6" d="M814.51,415.97l-14.53-12.33l1.74-2.05l11.3,1.58c2.62,0.37,4.86,0.82,6.93,1.4l0.01-0.06
			c-2.09-1.47-3.89-2.93-6.16-4.85l-6.08-5.16l1.5-1.77l14.53,12.33l-1.61,1.9l-11.29-1.64c-2.48-0.36-4.96-0.8-7.16-1.4l-0.03,0.08
			c1.92,1.45,3.71,2.88,6.12,4.93l6.21,5.27L814.51,415.97z"/>
	</g>
</g>
</svg>
